<svg width="370" height="370" viewBox="0 0 370 370" fill="none" xmlns="http://www.w3.org/2000/svg">
<g clip-path="url(#clip0_461644_238)">
<rect width="370" height="370" fill="#B1CCFF"/>
<path d="M-84.7112 144.084C-86.9421 136.672 -88.7896 123.147 -67.447 134.621C-65.3848 135.726 -63.6446 137.433 -62.51 139.548C-59.5585 145.061 -50.1062 156.695 -23.1289 155.75C-19.9705 155.638 -16.8963 156.848 -14.5888 159.091C-5.97206 167.465 13.9906 188.089 11.0928 196.759C8.16434 205.517 11.0775 213.321 13.1397 217.4C13.6073 218.321 16.1908 222.055 16.6355 222.984C19.6176 229.298 30.5955 264.273 21.2198 277.174C11.8441 290.074 10.4795 260.556 2.89004 246.437L-26.0497 192.584C-26.9083 190.982 -28.0966 189.596 -29.5302 188.522L-80.2495 150.518C-82.3577 148.931 -83.9293 146.68 -84.7112 144.084Z" fill="#6FE28F" stroke="#010101" stroke-miterlimit="10"/>
<path d="M95.604 220.18C95.604 220.18 27.9654 198.586 70.7503 96.3684C70.7503 96.3684 80.6857 73.2118 73.8091 54.8387C66.9326 36.4737 92.9132 25.2882 92.9132 25.2882C92.9132 25.2882 102.849 -28.2204 140.282 -28.2204C140.282 -28.2204 156.78 -15.7928 143.564 2.74844C130.347 21.2897 95.604 220.18 95.604 220.18Z" fill="#6FE28F" stroke="#010101" stroke-miterlimit="10"/>
<path d="M210.827 113.42C210.827 113.42 292.249 76.8979 293.33 5.32884C293.33 5.32884 293.867 -7.06679 262.06 21.1057C230.253 49.2782 182.263 83.0918 163.396 133.812L210.827 113.42Z" fill="#6FE28F" stroke="#010101" stroke-miterlimit="10"/>
<path d="M24.2558 355.13C24.2558 355.13 10.0427 333.311 -25.2523 375.154C-25.2523 375.154 5.81864 394.776 24.2558 355.13Z" fill="#6FE28F" stroke="#010101" stroke-miterlimit="10"/>
<path d="M32.0752 143.371C32.0752 143.371 57.6956 69.5983 0.375668 44.3745C0.375668 44.3745 -32.8112 -1.8745 -46.8863 -3.44498C-60.9613 -5.02347 -60.9613 -2.39528 -60.9613 -2.39528L8.40215 77.9396L32.0752 143.371Z" fill="#6FE28F" stroke="#010101" stroke-miterlimit="10"/>
<path d="M54.8202 469.79C55.0962 455.872 57.7334 436.353 55.2495 420.143C53.0493 405.761 42.4623 375.497 23.2433 357.925L24.2475 355.129C24.2475 355.129 54.1456 387.428 62.287 417.363C62.287 417.363 38.315 306.083 22.6453 294.657C21.2424 293.631 20.0695 292.317 19.2185 290.763C9.10687 272.294 -44.288 175.757 -57.9261 171.43C-75.2976 165.926 -83.1861 147.489 -83.1861 147.489C-83.1861 147.489 -69.456 148.226 -55.2812 153.266C-48.535 155.662 -42.2871 166.038 -35.7939 168.682C2.13832 184.098 -0.744156 212.76 4.76782 220.989C15.8301 237.503 22.4383 271.54 20.5678 279.353C19.5252 283.696 20.6981 285.042 21.94 285.386C23.3813 285.779 24.6155 286.709 25.2518 288.119C33.5236 306.444 74.1926 407.916 73.173 415.488C73.173 415.488 66.3195 209.779 29.5755 149.892C29.5755 149.892 14.6265 88.0507 -76.9305 -4.39132C-76.9305 -4.39132 -64.473 -19.367 -32.712 10.5843C-32.712 10.5843 4.03188 77.6342 19.6019 86.0956C19.6019 86.0956 39.5339 112.786 32.0594 143.378C32.0594 143.378 83.7523 283.992 80.6398 343.23C80.6398 343.23 91.8478 224.098 95.5889 220.195C99.3223 216.293 66.9404 196.758 78.1483 163.562C89.3563 130.365 88.7353 166.166 100.572 91.3038C100.572 91.3038 106.797 71.1199 120.504 62.0095C120.504 62.0095 111.159 30.7602 143.548 2.77195C143.548 2.77195 103.408 190.621 102.458 212.655C102.404 213.809 102.297 214.955 102.159 216.101C100.012 234.298 86.6425 349.399 91.2345 352.997C91.2345 352.997 140.804 208.801 147.91 196.109C147.91 196.109 112.953 152.657 183.412 123.202C186.525 121.904 207.078 116.039 210.819 113.435C214.552 110.831 164.73 172.023 156.635 191.55C148.539 211.077 92.4841 366.659 99.9586 375.777C99.9586 375.777 132.448 286.997 161.924 256.925C162.561 256.276 162.453 259.073 163.082 258.48C163.082 258.48 101.208 365.369 101.208 411.586C101.208 411.586 130.478 360.809 140.444 358.854C140.444 358.854 145.051 324.144 157.393 326.836C167.743 329.095 199.35 324.985 199.197 320.514C199.197 320.514 219.282 335.538 155.745 362.957C149.996 365.441 145.641 361.627 140.965 365.793C116.54 387.548 99.9816 429.582 102.074 469.349C102.113 470.03 86.2515 470.927 86.2515 470.927C72.644 472.009 54.8202 469.79 54.8202 469.79Z" fill="#365948" stroke="#010101" stroke-miterlimit="10"/>
<path d="M162.032 258.56C162.032 258.56 178.024 262.607 196.078 250.74C196.078 250.74 223.676 247.503 241.73 214.619C241.73 214.619 251.013 207.608 241.73 204.916C232.446 202.223 194.284 220.244 188.649 218.297C174.919 213.553 165.129 231.878 162.032 258.56Z" fill="#6FE28F" stroke="#010101" stroke-miterlimit="10"/>
<path d="M140.452 358.838C140.452 358.838 141.992 338.622 149.107 330.345C155.983 322.341 168.372 326.283 172.45 325.498C182.455 323.575 193.371 316.788 197.587 318.991C201.804 321.195 203.912 329.456 196.008 332.204C188.104 334.961 177.38 340.826 173.692 346.883C170.005 352.941 142.031 365.449 140.452 358.838Z" fill="#6FE28F" stroke="#010101" stroke-miterlimit="10"/>
<path d="M153.939 548.471C153.827 548.435 153.732 548.345 153.612 548.318L22.4978 520.65C-6.74406 515.665 -4.7083 510.463 -7.38233 492.397C-9.13339 480.56 -11.9886 417.4 -12.0662 415.678V415.606L-21.3132 341.718C-21.6669 338.896 -24.0303 336.832 -26.7475 336.976C-30.4653 337.175 -33.2946 340.555 -32.9754 344.432L-20.8733 500.916C-19.0618 519.578 -18.6391 527.872 36.9289 538.068C93.6702 548.471 135.299 558.46 135.299 558.46C135.299 558.46 148.66 561.489 152.076 573.822C154.535 582.674 156.182 595.124 155.406 615.309C154.535 638.145 153.741 667.705 153.094 695.58C143.545 695.364 132.495 697.861 126.75 699.132C117.503 701.178 -5.75206 728.206 -13.1272 735.364C-18.113 740.196 -19.8554 749.436 -8.99537 755.558C7.59225 764.915 99.7601 793.989 131.892 804.392C140.259 807.097 151.446 807.836 158.494 802.4C164.799 797.523 168.879 787.886 169.155 777.437C169.354 769.846 169.949 744.766 170.63 715.269C170.751 710.166 170.872 704.929 171.001 699.619C172.2 647.917 173.52 590.058 173.555 588.787C173.555 588.769 173.969 554.024 153.939 548.471ZM126.75 786.543C101.52 777.906 9.51579 748.553 6.01367 746.479C3.21025 744.811 -0.196995 743.468 9.87806 740.665C26.5951 736.022 118.582 715.233 118.582 715.233C121.558 714.485 141.337 710.581 152.758 710.184C151.904 749.436 151.369 781.963 151.369 781.963C151.369 781.963 152.861 795.477 126.75 786.543Z" fill="#FFF354" stroke="#010101" stroke-miterlimit="10"/>
<path d="M-22.6157 325.761C-22.6157 325.761 -29.7234 290.747 -0.274601 290.747C29.1742 290.747 152.3 295.66 152.3 295.66C152.3 295.66 167.62 296.21 170.665 320.614C173.71 345.018 178.428 412.784 178.428 412.784C178.428 412.784 179.446 426.577 166.24 427.641C153.034 428.705 23.714 447.979 23.714 447.979C23.714 447.979 2.77035 455.228 -7.38234 429.76C-17.5437 404.292 -22.6157 325.761 -22.6157 325.761Z" fill="#FFF354" stroke="#010101" stroke-miterlimit="10"/>
<path d="M1.26082 417.319C1.26082 417.319 0.872672 439.613 22.1959 436.431C43.5191 433.249 155.501 420.997 155.501 420.997C155.501 420.997 168.146 421.385 169.164 408.647C170.182 395.908 161.159 315.16 161.159 315.16C161.159 315.16 161.504 305.856 147.962 305.613C132.047 305.324 3.77962 301.367 3.77962 301.367C3.77962 301.367 -11.4538 298.184 -10.4359 308.795C-9.41805 319.397 1.26082 417.319 1.26082 417.319Z" fill="#FFF354" stroke="#010101" stroke-miterlimit="10"/>
<path d="M207.296 398.867C199.31 384.41 214.085 359.866 240.297 344.048C266.509 328.23 294.233 327.127 302.219 341.584C310.205 356.042 295.43 380.585 269.218 396.403C243.006 412.221 215.282 413.324 207.296 398.867Z" fill="#FFF354" stroke="#010101" stroke-miterlimit="10"/>
<path d="M219.479 378.368C219.841 378.368 247.252 337.105 286.437 340.982C286.437 340.982 281.694 383.894 278.39 388.231L299.824 445.937C300.298 447.172 300.661 448.416 300.911 449.669C302.645 450.255 304.344 450.976 305.983 451.851L326.977 447.424C328.917 447.01 330.979 447.425 332.721 448.434C334.464 449.444 335.895 451.04 336.611 452.987C338.026 456.881 336.016 460.704 332.117 461.533L318.86 464.328L316.911 464.743L320.861 468.772L346.651 495.016C347.393 495.773 347.893 496.639 348.178 497.549C348.868 499.803 348.186 502.318 346.194 504.004C343.382 506.366 339.044 506.176 336.49 503.571L320.879 487.677C320.559 488.624 320.18 489.544 319.749 490.454L334.938 505.915C335.68 506.672 336.189 507.547 336.473 508.458C337.163 510.702 336.473 513.217 334.481 514.894C331.677 517.265 327.339 517.067 324.786 514.471L311.563 501.011C310.856 501.615 310.131 502.165 309.381 502.697L322.69 516.246C323.432 517.004 323.932 517.869 324.217 518.78C324.907 521.025 324.217 523.54 322.233 525.226C319.421 527.588 315.082 527.398 312.538 524.802L296.296 508.277C295.184 508.494 294.071 508.665 292.95 508.782L309.864 525.992C310.606 526.749 311.106 527.615 311.391 528.525C312.081 530.779 311.399 533.294 309.407 534.971C306.595 537.342 302.256 537.153 299.712 534.548L266.09 500.317C265.763 499.992 265.486 499.65 265.254 499.28C265.167 499.19 265.072 499.109 264.978 499.009C258.284 492.203 255.559 483.332 256.68 474.831C252.626 471.919 249.4 467.952 247.554 463.147C247.554 463.147 232.917 440.257 225.197 417.205C219.099 398.986 219.548 379.666 219.479 378.368Z" fill="#FFDECE" stroke="#010101" stroke-miterlimit="10"/>
<path d="M17.7921 396.75L44.5048 410.381L67.966 481.313C92.9191 501.678 121.107 499.325 155.367 499.325C192.059 499.325 217.728 490.039 240.732 466.582C245.183 462.065 249.521 456.998 253.825 451.373C263.641 429.628 265.349 354.414 266.047 353.91C291.872 334.924 304.223 349.51 304.223 349.51C290.492 233.899 185.452 191.059 185.452 191.059C185.452 191.059 185.409 202.77 169.745 202.129C130.845 200.534 129.12 182.999 126.153 184.144C61.333 209.125 20.1297 273.755 16.6192 360.409C16.024 375.402 14.8681 383.534 17.7921 396.75Z" fill="#FFF354" stroke="#010101" stroke-miterlimit="10"/>
<path d="M17.2416 397.054C9.25534 382.596 22.8933 358.739 47.703 343.767C72.5128 328.796 99.0991 328.379 107.085 342.836C115.072 357.294 101.434 381.151 76.6239 396.122C51.8142 411.094 25.2279 411.511 17.2416 397.054Z" fill="#FFF354" stroke="#010101" stroke-miterlimit="10"/>
<path d="M121.416 285.8C121.416 285.8 105.666 310.24 107.098 342.667L121.416 285.8Z" fill="#FFF354"/>
<path d="M121.416 285.8C121.416 285.8 105.666 310.24 107.098 342.667" stroke="#010101" stroke-miterlimit="10"/>
<path d="M25.7788 362.6C26.1411 362.6 52.276 328.568 91.4611 332.94C91.4611 332.94 87.269 371.047 83.9655 375.943L105.4 441.068C105.874 442.466 106.236 443.863 106.486 445.279C108.22 445.946 109.919 446.757 111.558 447.74L132.552 442.745C134.493 442.277 136.554 442.745 138.297 443.881C140.039 445.017 141.471 446.82 142.187 449.02C143.601 453.419 141.592 457.729 137.693 458.666L124.436 461.821L122.486 462.29L126.437 466.834L152.227 496.458C152.968 497.305 153.469 498.288 153.753 499.325C154.443 501.867 153.762 504.707 151.77 506.609C148.958 509.277 144.619 509.061 142.066 506.122L126.454 488.182C126.135 489.246 125.756 490.282 125.324 491.319L140.513 508.773C141.255 509.62 141.764 510.612 142.049 511.64C142.739 514.173 142.049 517.013 140.056 518.906C137.253 521.574 132.915 521.358 130.361 518.428L117.139 503.238C116.431 503.914 115.707 504.545 114.957 505.14L128.265 520.439C129.007 521.286 129.507 522.268 129.792 523.305C130.482 525.838 129.792 528.678 127.808 530.581C124.996 533.249 120.658 533.033 118.113 530.103L101.872 511.45C100.759 511.703 99.6465 511.883 98.5252 512.018L115.439 531.446C116.181 532.294 116.681 533.276 116.966 534.313C117.656 536.855 116.975 539.695 114.982 541.588C112.171 544.266 107.832 544.049 105.288 541.11L71.6657 502.48C71.3379 502.11 71.0619 501.723 70.829 501.308C70.7428 501.209 70.6481 501.11 70.5532 501.002C63.8599 493.312 61.1342 483.305 62.2555 473.712C58.2016 470.431 54.9756 465.95 53.1298 460.532C53.1298 460.532 38.4926 434.695 30.7729 408.677C24.6748 388.086 25.6408 364.331 25.7788 362.6Z" fill="#FFDECE" stroke="#010101" stroke-miterlimit="10"/>
<path d="M266.039 353.919C266.039 353.919 267.574 316.83 251.609 291.443L266.039 353.919Z" fill="#FFF354"/>
<path d="M266.039 353.919C266.039 353.919 267.574 316.83 251.609 291.443" stroke="#010101" stroke-miterlimit="10"/>
<path fill-rule="evenodd" clip-rule="evenodd" d="M173.978 25.2394L171.112 25.0847C140.107 25.2523 122.921 52.4723 123.94 84.4288L124.09 95.9829C118.142 96.8697 110.004 100.493 112.784 113.872C114.682 123.01 119.642 126.217 124.491 126.937L125.467 202.286C135.654 208.964 147.379 212.741 159.445 213.231C171.511 213.722 183.488 210.907 194.154 205.076L194.955 204.638C195.036 195.642 194.823 187.458 194.823 187.458C194.823 187.458 224.791 184.326 226.73 153.742C227.669 138.972 227.199 108.401 226.461 80.7363C226.088 66.384 220.479 52.7032 210.753 42.4187C201.027 32.1342 187.897 26.0005 173.978 25.2394Z" fill="#FFDECE"/>
<path d="M171.112 25.0847L171.11 24.5847L171.125 24.5846L171.139 24.5854L171.112 25.0847ZM173.978 25.2394L174.005 24.7401L174.005 24.7401L173.978 25.2394ZM123.94 84.4288L124.44 84.4128L124.44 84.4223L123.94 84.4288ZM124.09 95.9829L124.59 95.9764L124.596 96.4131L124.164 96.4774L124.09 95.9829ZM112.784 113.872L113.273 113.77L112.784 113.872ZM124.491 126.937L124.564 126.443L124.985 126.505L124.991 126.931L124.491 126.937ZM125.467 202.286L125.193 202.704L124.97 202.558L124.967 202.292L125.467 202.286ZM159.445 213.231L159.465 212.732L159.445 213.231ZM194.154 205.076L194.394 205.515L194.394 205.515L194.154 205.076ZM194.955 204.638L195.455 204.642L195.452 204.936L195.195 205.076L194.955 204.638ZM194.823 187.458L194.324 187.471L194.312 187.008L194.772 186.96L194.823 187.458ZM226.73 153.742L226.231 153.71L226.231 153.71L226.73 153.742ZM226.461 80.7363L225.961 80.7496L225.961 80.7493L226.461 80.7363ZM210.753 42.4187L210.39 42.7623L210.753 42.4187ZM171.139 24.5854L174.005 24.7401L173.951 25.7387L171.085 25.584L171.139 24.5854ZM123.441 84.4447C122.928 68.3784 126.99 53.4668 135.116 42.5376C143.25 31.5959 155.444 24.6694 171.11 24.5847L171.115 25.5847C155.775 25.6676 143.873 32.4349 135.918 43.1342C127.954 53.846 123.933 68.5227 124.44 84.4128L123.441 84.4447ZM123.59 95.9894L123.44 84.4353L124.44 84.4223L124.59 95.9764L123.59 95.9894ZM124.164 96.4774C121.239 96.9135 117.853 98.0138 115.535 100.578C113.239 103.118 111.906 107.191 113.273 113.77L112.294 113.974C110.881 107.175 112.227 102.746 114.793 99.9077C117.336 97.094 120.993 95.9391 124.016 95.4884L124.164 96.4774ZM113.273 113.77C114.207 118.266 115.884 121.254 117.88 123.204C119.876 125.152 122.225 126.095 124.564 126.443L124.418 127.432C121.908 127.059 119.353 126.039 117.182 123.919C115.012 121.801 113.259 118.617 112.294 113.974L113.273 113.77ZM124.967 202.292L123.991 126.944L124.991 126.931L125.967 202.279L124.967 202.292ZM159.425 213.731C147.267 213.237 135.455 209.432 125.193 202.704L125.741 201.867C135.853 208.497 147.49 212.245 159.465 212.732L159.425 213.731ZM194.394 205.515C183.649 211.389 171.582 214.225 159.425 213.731L159.465 212.732C171.44 213.218 183.327 210.426 193.914 204.637L194.394 205.515ZM195.195 205.076L194.394 205.515L193.914 204.637L194.715 204.199L195.195 205.076ZM194.823 187.458C195.323 187.445 195.323 187.445 195.323 187.445C195.323 187.445 195.323 187.445 195.323 187.445C195.323 187.445 195.323 187.446 195.323 187.446C195.323 187.447 195.323 187.449 195.323 187.451C195.324 187.455 195.324 187.461 195.324 187.469C195.324 187.485 195.325 187.508 195.326 187.539C195.327 187.602 195.329 187.694 195.332 187.815C195.338 188.057 195.346 188.412 195.355 188.867C195.374 189.776 195.398 191.081 195.42 192.667C195.463 195.84 195.496 200.139 195.455 204.642L194.455 204.633C194.496 200.14 194.463 195.849 194.42 192.681C194.398 191.097 194.374 189.794 194.356 188.887C194.346 188.434 194.338 188.08 194.333 187.839C194.33 187.718 194.328 187.626 194.326 187.564C194.325 187.533 194.325 187.51 194.324 187.494C194.324 187.486 194.324 187.48 194.324 187.476C194.324 187.475 194.324 187.473 194.324 187.472C194.324 187.472 194.324 187.471 194.324 187.471C194.324 187.471 194.324 187.471 194.324 187.471C194.324 187.471 194.324 187.471 194.823 187.458ZM227.229 153.774C226.247 169.261 218.153 177.825 210.305 182.498C206.389 184.83 202.538 186.193 199.667 186.973C198.231 187.363 197.038 187.608 196.202 187.756C195.784 187.83 195.455 187.879 195.229 187.91C195.116 187.926 195.029 187.937 194.969 187.944C194.94 187.948 194.917 187.95 194.901 187.952C194.893 187.953 194.887 187.954 194.883 187.954C194.881 187.954 194.879 187.955 194.878 187.955C194.877 187.955 194.877 187.955 194.876 187.955C194.876 187.955 194.875 187.955 194.823 187.458C194.772 186.96 194.771 186.96 194.771 186.96C194.772 186.96 194.772 186.96 194.772 186.96C194.772 186.96 194.774 186.96 194.775 186.96C194.778 186.96 194.783 186.959 194.789 186.958C194.802 186.957 194.823 186.955 194.85 186.951C194.904 186.945 194.985 186.935 195.092 186.92C195.306 186.89 195.623 186.842 196.028 186.771C196.838 186.628 198.002 186.389 199.405 186.008C202.214 185.245 205.975 183.913 209.794 181.639C217.415 177.101 225.274 168.807 226.231 153.71L227.229 153.774ZM226.961 80.723C227.699 108.381 228.169 138.977 227.229 153.774L226.231 153.71C227.168 138.967 226.7 108.421 225.961 80.7496L226.961 80.723ZM211.116 42.0752C220.929 52.4507 226.584 66.2497 226.961 80.7233L225.961 80.7493C225.591 66.5183 220.03 52.9558 210.39 42.7623L211.116 42.0752ZM174.005 24.7401C188.054 25.5084 201.304 31.6992 211.116 42.0752L210.39 42.7623C200.75 32.5691 187.74 26.4927 173.95 25.7386L174.005 24.7401Z" fill="black"/>
<path d="M155.451 88.1847C143.122 83.2892 118.572 79.6992 121.183 91.4484" stroke="#010101"/>
<path d="M167.844 94.6335C167.892 95.7634 168.365 96.8291 169.161 97.604C169.957 98.3788 171.014 98.8015 172.106 98.7821C172.641 98.7966 173.174 98.7002 173.672 98.4987C174.171 98.2972 174.625 97.9946 175.009 97.6087C175.393 97.2228 175.698 96.7613 175.908 96.2515C176.117 95.7417 176.225 95.1938 176.226 94.6399C176.18 93.509 175.708 92.4416 174.912 91.6654C174.116 90.8892 173.058 90.4656 171.964 90.485C171.429 90.4705 170.896 90.5671 170.397 90.769C169.898 90.9709 169.443 91.274 169.059 91.6606C168.675 92.0472 168.37 92.5094 168.161 93.02C167.953 93.5306 167.845 94.0792 167.844 94.6335Z" fill="#010101" stroke="#010101"/>
<path d="M207.993 94.6336C208.041 95.7634 208.514 96.8292 209.31 97.604C210.106 98.3788 211.163 98.8015 212.255 98.7821C212.79 98.7966 213.323 98.7002 213.821 98.4987C214.32 98.2972 214.774 97.9946 215.158 97.6087C215.542 97.2228 215.847 96.7614 216.057 96.2516C216.266 95.7417 216.374 95.1938 216.375 94.64C216.327 93.5097 215.855 92.4432 215.059 91.6674C214.263 90.8915 213.207 90.4674 212.113 90.4852C211.578 90.4698 211.044 90.5657 210.545 90.7673C210.046 90.9689 209.591 91.272 209.207 91.6588C208.822 92.0455 208.517 92.5081 208.309 93.019C208.1 93.53 207.993 94.079 207.993 94.6336Z" fill="#010101" stroke="#010101"/>
<path d="M224.885 89.3515C223.775 90.4535 219.253 87.5071 213.987 87.6328C208.757 87.6209 204.414 90.6785 203.372 89.5893C202.918 89.0668 203.61 87.9692 205.541 86.885C208.144 85.5824 211.181 84.8681 214.266 84.8325C217.352 84.797 220.347 85.4418 222.873 86.6852C224.749 87.7269 225.371 88.8076 224.885 89.3515Z" fill="#010101"/>
<path d="M161.894 89.3515C163.005 90.4535 167.527 87.5071 172.793 87.6328C178.023 87.6209 182.366 90.6785 183.408 89.5893C183.862 89.0668 183.17 87.9692 181.239 86.885C178.636 85.5824 175.599 84.8681 172.513 84.8325C169.428 84.797 166.433 85.4418 163.907 86.6852C162.031 87.7269 161.408 88.8076 161.894 89.3515Z" fill="#010101"/>
<path d="M194.398 139.848C194.398 141.05 196.59 143.112 199.293 143.112C201.997 143.112 204.189 141.05 204.189 139.848" stroke="#010101"/>
<path d="M155.453 83.9417C172.91 81.2158 185.21 83.7794 189.177 85.4019V104.386C174.365 107.89 160.522 102.925 155.453 100.005V83.9417Z" fill="white" fill-opacity="0.3" stroke="#010101"/>
<path d="M228.341 82.8534C214.826 80.1275 205.303 82.6911 202.232 84.3136V103.297C213.699 106.802 224.416 101.837 228.341 98.9165V82.8534Z" fill="white" fill-opacity="0.3" stroke="#010101"/>
<path d="M202.232 89.2728C200.346 86.81 195.966 83.362 189.177 89.2728" stroke="#010101"/>
<path d="M199.029 94.7124C199.936 98.1574 201.64 105.7 201.205 108.311C200.661 111.575 208.82 115.382 203.925 120.278C200.008 124.194 192.502 123.723 189.239 122.997C191.415 121.003 194.243 117.884 188.151 121.366C186.338 121.003 183.364 119.407 185.975 115.926" stroke="#010101"/>
<path d="M213.11 150.195C216.591 131.918 205.132 126.624 198.967 126.261C187.653 127.567 186.275 135.871 187 139.86C187.87 165.099 190.626 157.266 191.895 150.195V139.86C191.895 137.503 193.31 132.897 198.967 133.332C204.625 133.768 207.126 137.865 207.669 139.86C208.032 150.92 209.629 168.471 213.11 150.195Z" fill="#010101"/>
<path d="M155.996 142.579C135.109 137.357 130.25 109.58 130.431 96.3436C122.272 121.909 130.431 155.633 138.59 162.705C146.749 169.776 169.051 185.006 203.319 184.462C237.588 183.918 231.604 138.227 225.077 142.579C219.855 146.06 212.748 152.732 209.847 155.633C203.755 149.976 194.616 153.276 190.809 155.633C187.908 153.458 176.884 147.801 155.996 142.579Z" fill="#010101"/>
</g>
<defs>
<clipPath id="clip0_461644_238">
<rect width="370" height="370" fill="white"/>
</clipPath>
</defs>
</svg>
