<svg width="53" height="53" viewBox="0 0 53 53" fill="none" xmlns="http://www.w3.org/2000/svg">
<path d="M8.83337 13.25C8.83337 12.0304 9.82209 11.0417 11.0417 11.0417H41.9584C43.178 11.0417 44.1667 12.0304 44.1667 13.25C44.1667 14.4696 43.178 15.4583 41.9584 15.4583H11.0417C9.82209 15.4583 8.83337 14.4696 8.83337 13.25Z" fill="white"/>
<path d="M8.83337 39.75C8.83337 38.5303 9.82209 37.5417 11.0417 37.5417H41.9584C43.178 37.5417 44.1667 38.5303 44.1667 39.75C44.1667 40.9697 43.178 41.9583 41.9584 41.9583H11.0417C9.82209 41.9583 8.83337 40.9697 8.83337 39.75Z" fill="white"/>
<path d="M24.2917 24.2917C23.072 24.2917 22.0834 25.2803 22.0834 26.5C22.0834 27.7197 23.072 28.7083 24.2917 28.7083H41.9584C43.178 28.7083 44.1667 27.7197 44.1667 26.5C44.1667 25.2803 43.178 24.2917 41.9584 24.2917H24.2917Z" fill="white"/>
</svg>
